<svg width="22" height="22" viewBox="0 0 22 22" fill="none" xmlns="http://www.w3.org/2000/svg">
<path d="M14.4539 0.0146849C15.8188 0.153185 16.8837 1.30548 16.8838 2.70692V4.48674H19.204C20.6986 4.48685 21.9106 5.69915 21.9109 7.19366V19.2931C21.9108 20.7878 20.6987 21.9999 19.204 22H2.70692C1.21219 21.9999 0.00010217 20.7878 0 19.2931V7.19366C0.000360087 5.69915 1.21235 4.48684 2.70692 4.48674H6.1432V2.70692C6.14331 1.21226 7.35549 0.0002163 8.85012 0H14.1778L14.4539 0.0146849ZM1.80527 19.2931C1.80537 19.7912 2.20878 20.1946 2.70692 20.1947H19.204C19.7021 20.1946 20.1065 19.7912 20.1066 19.2931V11.1537L12.3863 13.891C11.9001 14.0632 11.3764 14.0928 10.8766 13.9781L10.6642 13.9203L1.80527 11.1096V19.2931ZM2.70692 6.29201C2.20894 6.29211 1.80563 6.69574 1.80527 7.19366V9.21627L11.2095 12.2002L11.3524 12.2326C11.4968 12.2535 11.6453 12.2397 11.7842 12.1905L20.1066 9.23879V7.19366C20.1063 6.69574 19.702 6.29211 19.204 6.29201H2.70692ZM8.85012 1.80527C8.35208 1.80548 7.94858 2.20885 7.94847 2.70692V4.48674H15.0795V2.70692C15.0794 2.23991 14.7247 1.85545 14.2698 1.80918L14.1778 1.80527H8.85012Z" fill="#61616B"/>
</svg>
