<svg width="26" height="21" viewBox="0 0 26 21" fill="none" xmlns="http://www.w3.org/2000/svg">
<path d="M4.84616 5.65385C4.84616 5.43964 4.93125 5.2342 5.08272 5.08272C5.2342 4.93125 5.43964 4.84616 5.65385 4.84616H16.9615C17.1758 4.84616 17.3812 4.93125 17.5327 5.08272C17.6841 5.2342 17.7692 5.43964 17.7692 5.65385C17.7692 5.86806 17.6841 6.0735 17.5327 6.22497C17.3812 6.37645 17.1758 6.46154 16.9615 6.46154H5.65385C5.43964 6.46154 5.2342 6.37645 5.08272 6.22497C4.93125 6.0735 4.84616 5.86806 4.84616 5.65385ZM13.7308 9.69231C13.5166 9.69231 13.3111 9.77741 13.1597 9.92888C13.0082 10.0804 12.9231 10.2858 12.9231 10.5C12.9231 10.7142 13.0082 10.9197 13.1597 11.0711C13.3111 11.2226 13.5166 11.3077 13.7308 11.3077H16.9615C17.1758 11.3077 17.3812 11.2226 17.5327 11.0711C17.6841 10.9197 17.7692 10.7142 17.7692 10.5C17.7692 10.2858 17.6841 10.0804 17.5327 9.92888C17.3812 9.77741 17.1758 9.69231 16.9615 9.69231H13.7308ZM12.9231 15.3462C12.9231 15.1319 13.0082 14.9265 13.1597 14.775C13.3111 14.6236 13.5166 14.5385 13.7308 14.5385H16.9615C17.1758 14.5385 17.3812 14.6236 17.5327 14.775C17.6841 14.9265 17.7692 15.1319 17.7692 15.3462C17.7692 15.5604 17.6841 15.7658 17.5327 15.9173C17.3812 16.0688 17.1758 16.1539 16.9615 16.1539H13.7308C13.5166 16.1539 13.3111 16.0688 13.1597 15.9173C13.0082 15.7658 12.9231 15.5604 12.9231 15.3462ZM5.65385 9.69231C5.43964 9.69231 5.2342 9.77741 5.08272 9.92888C4.93125 10.0804 4.84616 10.2858 4.84616 10.5V15.3462C4.84616 15.5604 4.93125 15.7658 5.08272 15.9173C5.2342 16.0688 5.43964 16.1539 5.65385 16.1539H10.5C10.7142 16.1539 10.9197 16.0688 11.0711 15.9173C11.2226 15.7658 11.3077 15.5604 11.3077 15.3462V10.5C11.3077 10.2858 11.2226 10.0804 11.0711 9.92888C10.9197 9.77741 10.7142 9.69231 10.5 9.69231H5.65385ZM6.46154 14.5385V11.3077H9.69231V14.5385H6.46154ZM0 3.23077C0 2.37392 0.340384 1.55216 0.946271 0.946271C1.55216 0.340384 2.37392 0 3.23077 0H19.3846C20.2415 0 21.0632 0.340384 21.6691 0.946271C22.275 1.55216 22.6154 2.37392 22.6154 3.23077V4.84616C23.4723 4.84616 24.294 5.18654 24.8999 5.79243C25.5058 6.39831 25.8462 7.22007 25.8462 8.07693V16.9615C25.8462 18.0326 25.4207 19.0598 24.6633 19.8172C23.906 20.5745 22.8788 21 21.8077 21H4.03846C2.9674 21 1.9402 20.5745 1.18284 19.8172C0.42548 19.0598 0 18.0326 0 16.9615V3.23077ZM21 3.23077C21 2.80234 20.8298 2.39146 20.5269 2.08852C20.2239 1.78558 19.8131 1.61539 19.3846 1.61539H3.23077C2.80234 1.61539 2.39146 1.78558 2.08852 2.08852C1.78558 2.39146 1.61539 2.80234 1.61539 3.23077V16.9615C1.61539 17.6042 1.87067 18.2205 2.32509 18.6749C2.7795 19.1293 3.39582 19.3846 4.03846 19.3846H21.8077C22.4503 19.3846 23.0667 19.1293 23.5211 18.6749C23.9755 18.2205 24.2308 17.6042 24.2308 16.9615V8.07693C24.2308 7.6485 24.0606 7.23762 23.7576 6.93468C23.4547 6.63173 23.0438 6.46154 22.6154 6.46154V16.9615C22.6154 17.1758 22.5303 17.3812 22.3788 17.5327C22.2274 17.6841 22.0219 17.7692 21.8077 17.7692C21.5935 17.7692 21.3881 17.6841 21.2366 17.5327C21.0851 17.3812 21 17.1758 21 16.9615V3.23077Z" fill="#61616B"/>
</svg>
