<svg width="25" height="25" viewBox="0 0 25 25" fill="none" xmlns="http://www.w3.org/2000/svg">
<path d="M9.375 18.75V5.20833L21.875 3.125V16.6667M9.375 18.75C9.375 20.4759 7.97589 21.875 6.25 21.875C4.52411 21.875 3.125 20.4759 3.125 18.75C3.125 17.0241 4.52411 15.625 6.25 15.625C7.97589 15.625 9.375 17.0241 9.375 18.75ZM21.875 16.6667C21.875 18.3926 20.4759 19.7917 18.75 19.7917C17.0241 19.7917 15.625 18.3926 15.625 16.6667C15.625 14.9408 17.0241 13.5417 18.75 13.5417C20.4759 13.5417 21.875 14.9408 21.875 16.6667Z" stroke="#61616B" stroke-width="2" stroke-linecap="round" stroke-linejoin="round"/>
</svg>
