<svg width="24" height="22" viewBox="0 0 24 22" fill="none" xmlns="http://www.w3.org/2000/svg">
<path fill-rule="evenodd" clip-rule="evenodd" d="M17.1093 5.10926C17.1093 7.93103 14.8218 10.2185 12 10.2185C9.17823 10.2185 6.89073 7.93103 6.89073 5.10926C6.89073 2.2875 9.17823 0 12 0C14.8218 0 17.1093 2.2875 17.1093 5.10926ZM15.4062 5.10926C15.4062 6.99044 13.8812 8.51544 12 8.51544C10.1188 8.51544 8.59382 6.99044 8.59382 5.10926C8.59382 3.22809 10.1188 1.70309 12 1.70309C13.8812 1.70309 15.4062 3.22809 15.4062 5.10926Z" fill="#4F378A"/>
<path d="M12 12.7732C6.48677 12.7732 1.78936 16.0332 0 20.6006C0.435901 21.0334 0.895091 21.4429 1.37552 21.8268C2.70797 17.6335 6.88793 14.4762 12 14.4762C17.1121 14.4762 21.292 17.6335 22.6245 21.8268C23.1049 21.4429 23.5641 21.0335 24 20.6006C22.2106 16.0332 17.5132 12.7732 12 12.7732Z" fill="#4F378A"/>
</svg>
